<?xml version="1.0" encoding="iso-8859-1"?>
<!-- Generator: Adobe Illustrator 19.0.0, SVG Export Plug-In . SVG Version: 6.00 Build 0)  -->
<svg version="1.1" id="Layer_1" xmlns="http://www.w3.org/2000/svg" xmlns:xlink="http://www.w3.org/1999/xlink" x="0px" y="0px"
	 viewBox="0 0 380.969 380.969" style="enable-background:new 0 0 380.969 380.969;" xml:space="preserve">
<g>
	<g>
		<g>
			<circle cx="210.994" cy="79.094" r="9"/>
			<circle cx="180.994" cy="79.094" r="9"/>
			<circle cx="196.994" cy="130.427" r="9"/>
			<rect x="207.996" y="97.094" width="36.5" height="15"/>
			<rect x="140.746" y="153.26" width="36.5" height="15"/>
			<circle cx="226.994" cy="130.427" r="9"/>
			<rect x="140.746" y="122.927" width="36.5" height="15"/>
			<circle cx="150.996" cy="79.094" r="9"/>
			<rect x="159.996" y="97.094" width="36.5" height="15"/>
			<circle cx="120.996" cy="160.76" r="9"/>
			<path d="M330.759,320.484c4.143,0,7.5-3.357,7.5-7.5v-9.382h35.21c4.143,0,7.5-3.357,7.5-7.5v-52.914c0-4.143-3.357-7.5-7.5-7.5
				h-11.588c-0.142-4.019-3.434-7.233-7.486-7.233h-16.136v-20.851h16.136c4.143,0,7.5-3.357,7.5-7.5s-3.357-7.5-7.5-7.5h-47.269
				c-4.143,0-7.5,3.357-7.5,7.5s3.357,7.5,7.5,7.5h16.133v20.851h-16.133c-4.053,0-7.345,3.215-7.486,7.233h-6.005v-34.961h-15
				v34.961H67.441l3.961-33.814h1.456c4.143,0,7.5-3.357,7.5-7.5v-18.557c0-4.143-3.357-7.5-7.5-7.5H7.5c-4.143,0-7.5,3.357-7.5,7.5
				v18.557c0,4.143,3.357,7.5,7.5,7.5h1.455l4.586,39.155c0.687,6.545,6.356,11.659,12.943,11.659h1.193v43.414
				c0,4.143,3.357,7.5,7.5,7.5h118.331v9.382c0,4.143,3.357,7.5,7.5,7.5s7.5-3.357,7.5-7.5v-9.382h29.79v20.752H45.178
				c-9.649,0-17.5,7.851-17.5,17.5v15.195c0,4.143,3.357,7.5,7.5,7.5h338.291c4.143,0,7.5-3.357,7.5-7.5v-15.195
				c0-9.649-7.851-17.5-17.5-17.5h-69.834v-20.752h29.624v9.382C323.259,317.128,326.616,320.484,330.759,320.484z M237.299,266.521
				c1.287,0,2.334,1.047,2.334,2.334c0,1.287-1.047,2.334-2.334,2.334s-2.334-1.047-2.334-2.334
				C234.965,267.568,236.012,266.521,237.299,266.521z M213.299,281.522c0-4.393,1.638-10.74,3.983-15.438
				c5.608-11.231,9.385-12.287,11.626-12.386c-5.326,2.961-8.943,8.642-8.943,15.156c0,9.558,7.776,17.334,17.334,17.334
				s17.334-7.776,17.334-17.334c0-6.515-3.617-12.195-8.943-15.156c2.241,0.099,6.018,1.154,11.626,12.386
				c2.346,4.697,3.983,11.045,3.983,15.438v42.832h-48V281.522z M15,186.874v-3.557h50.358v3.557H15z M30.091,237.688h-1.839
				l-4.194-35.814H56.3l-3.96,33.814H35.178C33.212,235.688,31.428,236.451,30.091,237.688z M42.678,288.603v-37.914h166.287
				c-1.744,2.482-3.437,5.358-5.103,8.695c-3.38,6.769-5.563,15.458-5.563,22.139v7.08H42.678z M363.469,339.354
				c1.355,0,2.5,1.145,2.5,2.5v7.695H42.678v-7.695c0-1.355,1.145-2.5,2.5-2.5H363.469z M276.299,324.354v-20.752h2.336v20.752
				H276.299z M276.299,288.603v-7.08c0-6.681-2.184-15.37-5.563-22.139c-1.666-3.337-3.358-6.213-5.103-8.695h100.336v37.914
				H276.299z"/>
			<path d="M171.135,222.406c13.653,0,26.89-2.635,39.409-7.84c10.616,5.813,22.53,8.869,34.702,8.869
				c7.967,0,15.837-1.309,23.391-3.891c2.636-0.9,4.556-3.189,4.984-5.942c0.43-2.753-0.703-5.517-2.94-7.177
				c-8.199-6.085-14.552-14.131-18.547-23.439c14.214-18.097,21.993-40.497,21.993-63.576c0-56.789-46.202-102.991-102.992-102.991
				c-56.793,0-102.998,46.202-102.998,102.991C68.137,176.202,114.342,222.406,171.135,222.406z M171.135,31.419
				c48.52,0,87.992,39.473,87.992,87.991c0,21.01-7.548,41.362-21.254,57.31c-1.742,2.026-2.274,4.826-1.397,7.351
				c3.113,8.959,7.889,17.116,14.068,24.12c-1.757,0.163-3.524,0.245-5.298,0.245c-10.715,0-21.177-2.986-30.254-8.636
				c-1.208-0.752-2.583-1.133-3.963-1.133c-1.068,0-2.14,0.228-3.139,0.688c-11.595,5.342-23.961,8.051-36.756,8.051
				c-48.522,0-87.998-39.475-87.998-87.996C83.137,70.892,122.612,31.419,171.135,31.419z"/>
			<circle cx="120.996" cy="79.094" r="9"/>
			<rect x="111.996" y="97.094" width="36.5" height="15"/>
			<circle cx="120.996" cy="130.427" r="9"/>
		</g>
	</g>
</g>
<g>
</g>
<g>
</g>
<g>
</g>
<g>
</g>
<g>
</g>
<g>
</g>
<g>
</g>
<g>
</g>
<g>
</g>
<g>
</g>
<g>
</g>
<g>
</g>
<g>
</g>
<g>
</g>
<g>
</g>
</svg>
